<svg viewBox="0 0 512 512" xml:space="preserve" xmlns="http://www.w3.org/2000/svg" enable-background="new 0 0 512 512"><path d="M486.25 118.43H162.314a6.708 6.708 0 1 1 0-13.416H486.25a6.708 6.708 0 1 1 0 13.416zM486.25 263.185H162.314a6.708 6.708 0 1 1 0-13.416H486.25a6.708 6.708 0 1 1 0 13.416zM486.25 407.998H162.314a6.708 6.708 0 1 1 0-13.416H486.25a6.708 6.708 0 1 1 0 13.416zM45.129 136.845c-13.861 0-25.138-11.27-25.138-25.123 0-13.86 11.277-25.136 25.138-25.136 13.877 0 25.167 11.275 25.167 25.136 0 13.853-11.29 25.123-25.167 25.123zm0-36.843c-6.463 0-11.721 5.258-11.721 11.72 0 6.455 5.258 11.707 11.721 11.707 6.479 0 11.75-5.252 11.75-11.707 0-6.462-5.271-11.72-11.75-11.72zM45.129 281.605c-13.861 0-25.138-11.272-25.138-25.129s11.277-25.129 25.138-25.129c13.877 0 25.167 11.272 25.167 25.129s-11.29 25.129-25.167 25.129zm0-36.841c-6.463 0-11.721 5.255-11.721 11.713s5.258 11.713 11.721 11.713c6.479 0 11.75-5.255 11.75-11.713s-5.271-11.713-11.75-11.713zM45.129 426.367c-13.861 0-25.138-11.249-25.138-25.077 0-13.885 11.277-25.18 25.138-25.18 13.877 0 25.167 11.295 25.167 25.18 0 13.828-11.29 25.077-25.167 25.077zm0-36.841c-6.463 0-11.721 5.277-11.721 11.764 0 6.43 5.258 11.661 11.721 11.661 6.479 0 11.75-5.231 11.75-11.661 0-6.486-5.271-11.764-11.75-11.764z" fill="#ffffff" class="fill-000000"></path></svg>