<?xml version="1.0" ?><!DOCTYPE svg  PUBLIC '-//W3C//DTD SVG 1.1//EN'  'http://www.w3.org/Graphics/SVG/1.1/DTD/svg11.dtd'><svg height="100%" style="fill-rule:evenodd;clip-rule:evenodd;stroke-linejoin:round;stroke-miterlimit:1.41421;" version="1.1" viewBox="0 0 128 128" width="100%" xml:space="preserve" xmlns="http://www.w3.org/2000/svg" xmlns:serif="http://www.serif.com/" xmlns:xlink="http://www.w3.org/1999/xlink"><rect height="128" id="Cog" style="fill:none;" width="128" x="0.441" y="0"/><path d="M32.273,18.008c0.493,0.219 0.58,0.334 0.714,0.447c2.272,2.214 4.614,4.352 7.026,6.415c0,0 -0.846,0.787 1.591,-0.623c3.833,-2.186 7.954,-3.819 12.241,-4.852l0.177,-0.041c0.263,-3.26 0.414,-6.529 0.456,-9.8c0,0 0.322,-1.765 2.224,-2.026c0.77,-0.105 1.542,-0.195 2.315,-0.269c4.464,-0.427 8.976,-0.315 13.421,0.305c0,0 1.822,0.269 1.967,1.99c0.041,3.18 0.185,6.342 0.432,9.503c0,0 -1.154,-0.042 1.566,0.685c4.265,1.167 8.34,2.933 12.085,5.225l0.156,0.096c2.49,-2.12 4.908,-4.325 7.252,-6.608c0,0 1.359,-1.23 4.431,1.259c3.486,2.825 6.639,6.067 9.362,9.621c0.603,0.787 1.218,2.12 0.297,3.21c-2.22,2.279 -4.354,4.617 -6.415,7.026c0,0 -0.786,-0.845 0.624,1.592c2.187,3.833 3.817,7.946 4.851,12.24l0.042,0.178c3.26,0.262 6.528,0.413 9.8,0.456c0,0 1.722,-0.13 2.093,2.738c0.613,4.882 0.612,9.837 -0.033,14.708c-0.131,0.988 -0.637,2.36 -2.06,2.48c-0.471,0.006 -0.942,0.014 -1.413,0.024c-2.702,0.062 -5.4,0.198 -8.091,0.408c0,0 0.041,-1.153 -0.684,1.566c-1.165,4.254 -2.92,8.318 -5.225,12.086l-0.096,0.155c2.119,2.491 4.323,4.908 6.607,7.252c0,0 1.231,1.359 -1.259,4.432c-2.936,3.623 -6.287,6.858 -10.033,9.675c-2.054,1.544 -4.244,-1.46 -6.649,-3.64c-1.391,-1.26 -3.401,-2.984 -3.401,-2.984c-0.212,0.131 -0.424,0.26 -0.637,0.389c-4.042,2.405 -8.407,4.18 -12.969,5.278l-0.177,0.042c-0.263,3.26 -0.414,6.529 -0.456,9.8c0,0 -0.322,1.765 -2.224,2.026c-0.77,0.105 -1.542,0.195 -2.315,0.269c-4.464,0.427 -8.976,0.315 -13.421,-0.305c0,0 -1.822,-0.269 -1.967,-1.99c-0.006,-0.471 -0.014,-0.941 -0.023,-1.412c-0.063,-2.702 -0.198,-5.4 -0.409,-8.092c0,0 1.155,0.042 -1.566,-0.684c-4.264,-1.166 -8.324,-2.923 -12.085,-5.225l-0.156,-0.096c-2.49,2.12 -4.908,4.324 -7.252,6.607c0,0 -1.476,1.021 -3.005,-0.14c-4.181,-3.173 -7.927,-6.949 -11.101,-11.152c0,0 -1.099,-1.478 0.016,-2.798c2.22,-2.279 4.354,-4.616 6.415,-7.026c0,0 0.786,0.846 -0.624,-1.591c-2.184,-3.828 -3.817,-7.954 -4.851,-12.24l-0.042,-0.178c-3.26,-0.263 -6.529,-0.413 -9.8,-0.456c0,0 -1.831,-0.091 -2.243,-4.024c-0.487,-4.643 -0.405,-9.293 0.253,-13.936c0.358,-2.527 4.025,-1.967 7.275,-2.127c1.875,-0.093 4.515,-0.295 4.515,-0.295c0.057,-0.242 0.116,-0.484 0.176,-0.725c1.155,-4.551 2.987,-8.901 5.437,-12.903l0.096,-0.155c-2.119,-2.491 -4.323,-4.909 -6.607,-7.253c0,0 -1.02,-1.475 0.14,-3.004c3.12,-4.112 6.822,-7.801 10.945,-10.946c0,0 0.78,-1.017 2.291,-0.587Zm31.928,-7.007c-1.843,0.012 -3.686,0.117 -5.521,0.313l-0.233,0.026c-0.012,0.508 -0.027,1.016 -0.044,1.524c-0.102,2.86 0.094,5.794 -0.569,8.593c-0.414,1.748 -3.353,1.835 -5.544,2.5c-3.932,1.193 -7.671,2.976 -11.102,5.253c0,0 -1.17,0.745 -2.387,-0.131c-2.499,-2.084 -4.937,-4.254 -7.303,-6.502l-0.054,-0.052c-3.004,2.4 -5.749,5.12 -8.18,8.107l-0.297,0.37c2.332,2.442 4.957,4.731 6.72,7.588c0.943,1.529 -1.068,3.658 -2.153,5.688c-1.934,3.62 -3.32,7.529 -4.136,11.564c0,0 -0.299,1.355 -1.78,1.596c-3.254,0.295 -6.506,0.483 -9.761,0.566l-0.075,0.001c-0.428,3.822 -0.445,7.688 -0.052,11.517l0.052,0.472c3.375,0.078 6.851,-0.16 10.117,0.614c1.706,0.404 1.818,3.25 2.426,5.298c1.192,4.016 3.002,7.847 5.326,11.347c0,0 0.746,1.17 -0.13,2.387c-2.087,2.503 -4.254,4.937 -6.503,7.303l-0.051,0.054c2.399,3.004 5.12,5.749 8.107,8.181l0.37,0.297c2.442,-2.332 4.732,-4.959 7.588,-6.721c1.529,-0.943 3.662,1.071 5.688,2.153c3.619,1.935 7.528,3.32 11.564,4.136c0,0 1.354,0.3 1.595,1.78c0.294,3.241 0.483,6.499 0.566,9.762l0.002,0.075c3.821,0.426 7.686,0.444 11.517,0.051l0.472,-0.051c0.078,-3.376 -0.161,-6.854 0.613,-10.118c0.415,-1.748 3.347,-1.833 5.544,-2.499c3.932,-1.194 7.672,-2.976 11.102,-5.253c0,0 1.17,-0.746 2.387,0.13c2.51,2.093 4.942,4.259 7.303,6.503l0.054,0.052c3.008,-2.404 5.754,-5.126 8.18,-8.108l0.297,-0.37c-2.332,-2.441 -4.957,-4.73 -6.72,-7.587c-0.943,-1.529 1.067,-3.658 2.153,-5.689c1.934,-3.619 3.319,-7.528 4.136,-11.564c0,0 0.3,-1.354 1.78,-1.595c3.24,-0.294 6.498,-0.483 9.761,-0.566l0.075,-0.002c0.426,-3.822 0.444,-7.687 0.052,-11.517l-0.052,-0.472c-3.375,-0.077 -6.852,0.161 -10.117,-0.613c-1.798,-0.426 -1.874,-3.528 -2.575,-5.79c-0.506,-1.632 -1.113,-3.234 -1.815,-4.793c-0.95,-2.107 -2.08,-4.132 -3.362,-6.062c0,0 -0.746,-1.17 0.13,-2.388c2.087,-2.502 4.254,-4.936 6.503,-7.302l0.051,-0.055c-2.4,-3.004 -5.121,-5.749 -8.107,-8.18l-0.37,-0.297c-2.442,2.332 -4.732,4.959 -7.588,6.72c-1.491,0.92 -3.574,-1.007 -5.462,-2.031c-1.578,-0.855 -3.211,-1.609 -4.886,-2.256c-2.236,-0.862 -4.548,-1.525 -6.904,-2.001c0,0 -1.354,-0.3 -1.595,-1.78c-0.044,-0.48 -0.086,-0.961 -0.126,-1.442c-0.223,-2.767 -0.37,-5.542 -0.44,-8.32c0,0 -3.094,-0.421 -6.237,-0.414Zm0.395,28.999c10.976,0.105 21.319,8.532 23.416,19.461c2.05,10.686 -4.177,22.395 -14.231,26.651c-11.183,4.733 -25.629,-0.632 -30.97,-11.709c-6.827,-14.158 3.705,-34.011 21.167,-34.399c0.206,-0.003 0.412,-0.004 0.618,-0.004Zm-0.284,4c-11.307,0.108 -21.293,11.238 -19.676,22.798c1.324,9.467 10.309,17.262 19.935,17.201c11.686,-0.074 21.901,-12.137 19.464,-24.029c-1.828,-8.923 -10.307,-16 -19.723,-15.97Z" style="fill-rule:nonzero;"/></svg>