<?xml version="1.0" ?><svg style="enable-background:new 0 0 24 24;" version="1.1" viewBox="0 0 24 24" xml:space="preserve" xmlns="http://www.w3.org/2000/svg" xmlns:xlink="http://www.w3.org/1999/xlink"><style type="text/css">
	.st0{display:none;}
	.st1{display:inline;}
	.st2{opacity:0.2;fill:none;stroke:#000000;stroke-width:5.000000e-02;stroke-miterlimit:10;}
</style><g class="st0" id="grid_system"/><g id="_icons"><g><path d="M16,6H8c-3.3,0-6,2.7-6,6s2.7,6,6,6h8c3.3,0,6-2.7,6-6S19.3,6,16,6z M16,16H8c-2.2,0-4-1.8-4-4s1.8-4,4-4h8    c2.2,0,4,1.8,4,4S18.2,16,16,16z"/><path d="M8,9c-1.7,0-3,1.3-3,3s1.3,3,3,3s3-1.3,3-3S9.7,9,8,9z M8,13c-0.6,0-1-0.4-1-1s0.4-1,1-1s1,0.4,1,1S8.6,13,8,13z"/></g></g></svg>