<svg xmlns="http://www.w3.org/2000/svg" viewBox="0 0 128 128" xml:space="preserve" fill-rule="evenodd" clip-rule="evenodd" stroke-linejoin="round" stroke-miterlimit="1.41421"><path d="M.211 0h128v128h-128z" fill="none"/><path d="M31.458 16.096c4.408.074 8.385 3.389 9.572 7.809 1.458 5.661 2.889 11.33 4.294 17.004.876 3.687-.417 7.797-3.382 10.157 0 0-2.371 1.758-3.494 3.715-3.946 6.876 2.128 15.689 8.742 22.714 5.682 6.035 12.498 10.93 19.86 14.762 3.922 1.995 8.555-.635 10.555-4.498.979-1.793 3.115-2.817 5.111-2.337 5.692 1.513 11.357 3.129 17.022 4.743 4.294 1.275 7.329 5.563 7.398 10.204.022 4.63.283 9.597-2.474 12.982-1.582 1.942-3.89 3.273-6.385 3.607-1.92.233-2.779.243-4.196.297-31.326 1.195-61.43-21.162-74.095-51.681-5.022-12.102-7.296-25.353-6.573-38.423.308-5.571 4.009-10.941 9.986-11.055 2.686-.017 5.372-.016 8.059 0Zm-7.929 3.999c-3.688.023-5.967 3.955-6.153 7.886a82.06 82.06 0 0 0-.016 7.374c1.321 31.296 21.288 62.175 50.337 73.474 9.315 3.623 19.301 5.144 29.446 4.223 3.222-.293 5.839-3.152 5.965-6.447.083-3.041.526-6.278-.482-8.814-.702-1.764-2.172-3.241-4.005-3.785-5.612-1.599-11.243-3.134-16.864-4.7-1.122-.313-1.424 2.159-2.55 3.518-3.6 4.342-10.094 5.118-15.445 2.217-11.972-6.492-22.795-15.752-29.099-27.979-3.093-5.999-1.637-14.157 3.978-18.439 0 0 3.663-3.118 2.796-6.771-1.405-5.672-2.779-11.354-4.294-16.998-.725-2.595-3.018-4.713-5.731-4.759-2.628-.014-5.256 0-7.883 0Zm50.152-9.396c14.979.145 29.093 10.042 35.372 23.982 7.051 15.655 4.588 35.159-7.219 48.238-2.034 2.253-5.375.003-2.809-2.859 11.62-13.114 13.196-34.182 3.459-49.075-7.508-11.486-21.836-18.321-35.39-15.671-7.159 1.399-13.742 5.246-18.754 10.624 0 0-.862.715-1.683.624-1.611-.179-2.323-2.229-.702-3.925 7.066-7.297 16.796-11.771 27.012-11.935.238-.003.476-.003.714-.003Zm-.058 10.415c11.324.109 22.013 7.599 26.755 18.127 5.219 11.587 3.44 26.06-4.924 35.807-.755.88-1.691 1.794-2.834 1.455-1.463-.433-1.946-2.085-.431-3.796 8.404-9.609 9.467-24.926 2.409-35.721-8.197-12.538-27.805-16.162-39.437-3.682 0 0-.722.629-1.443.636-1.723.017-2.691-2.162-.797-4.081 5.312-5.383 12.661-8.671 20.342-8.745h.36Zm.059 10.964c7.435.144 14.372 4.983 17.512 11.847 3.584 7.832 2.248 17.694-3.629 24.168 0 0-.855.857-1.836.719-1.705-.24-2.202-2.118-.625-3.979 6.217-7.529 4.969-20.414-3.208-26.083-5.854-4.06-14.486-3.132-19.555 2.307 0 0-1.512 1.075-2.64.253-1.814-1.32.612-4.185 3.009-5.847a19.102 19.102 0 0 1 10.972-3.385Z" fill-rule="nonzero" fill="#312b2a" class="fill-000000"/></svg>
