<svg xmlns="http://www.w3.org/2000/svg" viewBox="0 0 32 32"><path d="M25 17H7a.92.92 0 0 0-1 .8v6.4a.92.92 0 0 0 1 .8h18a.92.92 0 0 0 1-.8v-6.4a.92.92 0 0 0-1-.8Zm-10.43 4.92v.19a.38.38 0 0 1-.11.08l-.18.09-.26.07a1.48 1.48 0 0 1-.31 0 1.54 1.54 0 0 1-.58-.11 1.2 1.2 0 0 1-.45-.32 1.57 1.57 0 0 1-.28-.53 2.73 2.73 0 0 1-.09-.74 2.57 2.57 0 0 1 .1-.77 1.58 1.58 0 0 1 .3-.56 1.23 1.23 0 0 1 .47-.35 1.41 1.41 0 0 1 .59-.12 1 1 0 0 1 .25 0 .77.77 0 0 1 .23.06.66.66 0 0 1 .19.09l.11.08V19.54a.64.64 0 0 1 0 .09.21.21 0 0 1-.09-.05l-.15-.1a1 1 0 0 0-.21-.1.84.84 0 0 0-.29-.05.74.74 0 0 0-.34.08.82.82 0 0 0-.25.24 1.15 1.15 0 0 0-.16.37 2.38 2.38 0 0 0-.05.49 2 2 0 0 0 .06.52 1 1 0 0 0 .16.36.75.75 0 0 0 .26.21.88.88 0 0 0 .33.07.85.85 0 0 0 .3-.05l.21-.09.15-.1h.09a.64.64 0 0 1 0 .09Zm2.24-.14a.9.9 0 0 1-.25.33 1.12 1.12 0 0 1-.37.21 1.63 1.63 0 0 1-.45.07 1.55 1.55 0 0 1-.31 0l-.25-.07-.18-.12a.44.44 0 0 1-.1-.08.19.19 0 0 1 0-.09.92.92 0 0 1 0-.19.61.61 0 0 1 0-.14v-.08a.11.11 0 0 1 0-.05.21.21 0 0 1 .09.05l.16.09.23.1a1 1 0 0 0 .32 0 .66.66 0 0 0 .21 0 .8.8 0 0 0 .16-.08.71.71 0 0 0 .1-.14.57.57 0 0 0 0-.18.34.34 0 0 0-.06-.2 1.06 1.06 0 0 0-.15-.15l-.22-.12a1.34 1.34 0 0 1-.24-.12 1.23 1.23 0 0 1-.25-.14.76.76 0 0 1-.21-.19.61.61 0 0 1-.15-.26 1 1 0 0 1-.06-.37.93.93 0 0 1 .08-.42.81.81 0 0 1 .23-.31 1 1 0 0 1 .33-.18 1.42 1.42 0 0 1 .42-.06.82.82 0 0 1 .22 0 .72.72 0 0 1 .21.05l.17.07a.21.21 0 0 1 .1.06v.05a.19.19 0 0 1 0 .08V19.58h-.09l-.14-.08a1.07 1.07 0 0 0-.44-.12.54.54 0 0 0-.19 0 .35.35 0 0 0-.13.08.44.44 0 0 0-.08.11.77.77 0 0 0 0 .15.31.31 0 0 0 .06.19.43.43 0 0 0 .15.15l.22.12.25.12.25.14a1.29 1.29 0 0 1 .21.19.87.87 0 0 1 .16.26 1.13 1.13 0 0 1 0 .83Zm3.05-2.58-.94 3v.08h-.8a.08.08 0 0 1 0-.05l-.94-3a.56.56 0 0 1 0-.15.11.11 0 0 1 0-.08.18.18 0 0 1 .11 0h.48v.07l.77 2.61.76-2.6a.14.14 0 0 1 0-.07.1.1 0 0 1 .05 0H19.89a.11.11 0 0 1 0 .08s-.01.05-.03.11ZM23 26h2v1a2 2 0 0 1-2 2H9a2 2 0 0 1-2-2v-1h2v1h14ZM9 16H7V5a2 2 0 0 1 2-2h11.41L25 7.59V16h-2V9h-4a1 1 0 0 1-1-1V5H9Zm16 1H7a.92.92 0 0 0-1 .8v6.4a.92.92 0 0 0 1 .8h18a.92.92 0 0 0 1-.8v-6.4a.92.92 0 0 0-1-.8Zm-10.43 4.92v.19a.38.38 0 0 1-.11.08l-.18.09-.26.07a1.48 1.48 0 0 1-.31 0 1.54 1.54 0 0 1-.58-.11 1.2 1.2 0 0 1-.45-.32 1.57 1.57 0 0 1-.28-.53 2.73 2.73 0 0 1-.09-.74 2.57 2.57 0 0 1 .1-.77 1.58 1.58 0 0 1 .3-.56 1.23 1.23 0 0 1 .47-.35 1.41 1.41 0 0 1 .59-.12 1 1 0 0 1 .25 0 .77.77 0 0 1 .23.06.66.66 0 0 1 .19.09l.11.08V19.54a.64.64 0 0 1 0 .09.21.21 0 0 1-.09-.05l-.15-.1a1 1 0 0 0-.21-.1.84.84 0 0 0-.29-.05.74.74 0 0 0-.34.08.82.82 0 0 0-.25.24 1.15 1.15 0 0 0-.16.37 2.38 2.38 0 0 0-.05.49 2 2 0 0 0 .06.52 1 1 0 0 0 .16.36.75.75 0 0 0 .26.21.88.88 0 0 0 .33.07.85.85 0 0 0 .3-.05l.21-.09.15-.1h.09a.64.64 0 0 1 0 .09Zm2.24-.14a.9.9 0 0 1-.25.33 1.12 1.12 0 0 1-.37.21 1.63 1.63 0 0 1-.45.07 1.55 1.55 0 0 1-.31 0l-.25-.07-.18-.12a.44.44 0 0 1-.1-.08.19.19 0 0 1 0-.09.92.92 0 0 1 0-.19.61.61 0 0 1 0-.14v-.08a.11.11 0 0 1 0-.05.21.21 0 0 1 .09.05l.16.09.23.1a1 1 0 0 0 .32 0 .66.66 0 0 0 .21 0 .8.8 0 0 0 .16-.08.71.71 0 0 0 .1-.14.57.57 0 0 0 0-.18.34.34 0 0 0-.06-.2 1.06 1.06 0 0 0-.15-.15l-.22-.12a1.34 1.34 0 0 1-.24-.12 1.23 1.23 0 0 1-.25-.14.76.76 0 0 1-.21-.19.61.61 0 0 1-.15-.26 1 1 0 0 1-.06-.37.93.93 0 0 1 .08-.42.81.81 0 0 1 .23-.31 1 1 0 0 1 .33-.18 1.42 1.42 0 0 1 .42-.06.82.82 0 0 1 .22 0 .72.72 0 0 1 .21.05l.17.07a.21.21 0 0 1 .1.06v.05a.19.19 0 0 1 0 .08V19.58h-.09l-.14-.08a1.07 1.07 0 0 0-.44-.12.54.54 0 0 0-.19 0 .35.35 0 0 0-.13.08.44.44 0 0 0-.08.11.77.77 0 0 0 0 .15.31.31 0 0 0 .06.19.43.43 0 0 0 .15.15l.22.12.25.12.25.14a1.29 1.29 0 0 1 .21.19.87.87 0 0 1 .16.26 1.13 1.13 0 0 1 0 .83Zm3.05-2.58-.94 3v.08h-.8a.08.08 0 0 1 0-.05l-.94-3a.56.56 0 0 1 0-.15.11.11 0 0 1 0-.08.18.18 0 0 1 .11 0h.48v.07l.77 2.61.76-2.6a.14.14 0 0 1 0-.07.1.1 0 0 1 .05 0H19.89a.11.11 0 0 1 0 .08s-.01.05-.03.11Z" data-name="Layer 33" fill="#782c00" class="fill-000000"/></svg>
