<svg xmlns="http://www.w3.org/2000/svg" version="1.0" width="612.000000pt" height="403.000000pt" viewBox="0 0 612.000000 403.000000" preserveAspectRatio="xMidYMid meet">
<metadata fill="#ffffff">
Created by potrace 1.16, written by Peter Selinger 2001-2019
</metadata>
<g transform="translate(0.000000,403.000000) scale(0.100000,-0.100000)" fill="#ffffff" stroke="none">
<path d="M4150 3983 c-14 -9 -69 -55 -122 -101 -105 -90 -127 -126 -108 -177 12 -33 120 -186 164 -232 36 -40 80 -44 122 -11 84 64 155 133 160 157 4 14 13 33 20 41 23 27 34 69 24 94 -11 30 -121 185 -156 220 -31 30 -69 34 -104 9z m92 -78 c22 -32 24 -39 15 -83 -10 -46 -9 -51 26 -108 21 -33 37 -64 37 -71 0 -6 -30 -37 -67 -70 -106 -92 -100 -89 -124 -67 -37 33 -159 212 -159 233 0 25 201 201 229 201 10 0 29 -16 43 -35z" fill="#ffffff"/>
<path d="M3370 3772 c-363 -95 -446 -565 -140 -795 77 -58 155 -88 250 -94 l76 -6 45 -88 45 -88 -660 -3 c-645 -4 -663 -5 -740 -26 -182 -50 -270 -144 -314 -332 -15 -67 -17 -143 -17 -750 0 -602 2 -683 17 -752 46 -204 155 -307 366 -343 78 -14 190 -15 799 -13 638 3 714 5 768 21 132 39 216 102 266 198 54 107 61 167 68 574 l6 370 64 -123 c71 -137 95 -162 151 -162 30 0 44 6 64 31 14 17 26 43 26 57 0 23 -101 221 -396 779 l-64 122 191 176 c152 140 196 176 213 171 12 -2 48 -12 81 -20 156 -40 319 5 431 120 167 170 161 436 -13 624 -102 110 -266 167 -409 143 -233 -40 -387 -231 -371 -460 7 -97 17 -133 62 -207 19 -32 35 -62 35 -67 0 -4 -71 -73 -157 -153 l-158 -145 -72 137 c-40 75 -87 165 -105 199 l-33 62 63 56 c71 65 106 119 133 206 48 153 6 317 -112 444 -69 73 -151 120 -246 140 -87 19 -132 18 -213 -3z m213 -198 c106 -36 181 -144 181 -259 -1 -72 -26 -127 -80 -175 -54 -47 -99 -63 -174 -63 -200 1 -332 202 -246 376 56 115 189 165 319 121z m1129 -220 c106 -36 178 -138 178 -254 0 -57 -5 -74 -32 -120 -47 -78 -108 -114 -204 -118 -61 -4 -81 0 -126 20 -127 58 -190 186 -154 309 41 142 190 214 338 163z m-1915 -867 c12 -7 74 -80 138 -162 121 -156 164 -198 224 -215 20 -5 98 -10 174 -10 80 0 137 -4 135 -9 -1 -5 -70 -71 -153 -146 -210 -190 -225 -207 -225 -248 0 -40 28 -80 68 -96 24 -10 36 -10 63 3 19 8 148 120 288 249 l255 234 52 -12 c90 -21 133 -58 161 -140 15 -44 17 -108 21 -515 4 -503 -2 -570 -49 -647 -29 -47 -101 -79 -209 -92 -112 -14 -1257 -15 -1370 -1 -118 15 -187 50 -217 110 -41 82 -44 151 -41 846 3 658 3 659 26 715 33 84 84 121 184 138 85 14 449 13 475 -2z m885 3 c39 -11 98 -70 98 -98 0 -10 -19 -37 -43 -60 l-43 -42 -236 0 c-210 0 -238 2 -256 18 -16 14 -57 64 -145 180 -7 9 52 12 289 12 172 0 315 -4 336 -10z" fill="#ffffff"/>
<path d="M2350 3489 c-14 -6 -40 -8 -58 -5 -45 7 -90 -11 -106 -43 -15 -29 -82 -271 -92 -329 -9 -56 16 -106 63 -130 65 -33 352 -122 394 -122 69 0 88 30 139 210 49 177 58 237 40 280 -17 40 -54 61 -185 103 -135 44 -163 49 -195 36z m163 -99 c144 -47 160 -57 159 -96 -1 -33 -76 -315 -92 -344 -7 -14 -21 -20 -43 -19 -46 1 -359 111 -371 130 -6 12 -6 35 3 74 12 54 15 57 59 76 73 30 74 31 102 118 22 69 40 100 58 101 2 0 58 -18 125 -40z" fill="#ffffff"/>
<path d="M963 3150 c-18 -4 -43 -14 -55 -22 -18 -12 -28 -12 -72 -1 -97 26 -180 -5 -223 -83 -35 -64 -174 -586 -180 -677 -9 -127 29 -192 145 -251 62 -31 654 -224 714 -232 81 -11 135 3 183 47 23 22 52 61 63 87 38 89 184 644 190 718 8 119 -38 194 -153 252 -52 26 -401 139 -485 158 -72 15 -80 15 -127 4z m322 -207 c286 -93 305 -105 305 -182 0 -45 -143 -598 -174 -672 -24 -57 -48 -73 -103 -66 -58 7 -619 188 -683 220 -71 36 -78 60 -51 182 13 55 28 109 35 120 8 12 47 31 100 48 127 42 138 54 185 219 41 146 59 184 94 198 33 13 73 4 292 -67z m-490 47 c3 -5 -8 -61 -26 -124 -31 -113 -32 -115 -66 -127 -19 -6 -36 -9 -38 -7 -10 9 65 243 81 255 21 15 41 17 49 3z" fill="#ffffff"/>
<path d="M4706 2430 c-69 -21 -85 -53 -172 -345 -119 -397 -113 -410 231 -530 187 -65 219 -71 273 -50 35 14 49 15 91 5 55 -13 101 0 135 38 10 12 49 126 87 254 76 257 84 318 49 376 -33 54 -55 65 -385 182 -198 70 -261 84 -309 70z m284 -149 c357 -127 357 -127 347 -208 -3 -26 -14 -72 -24 -102 l-18 -54 -80 -28 c-43 -15 -85 -35 -92 -45 -7 -9 -26 -62 -44 -118 -35 -115 -57 -146 -105 -146 -32 0 -314 94 -373 124 -46 24 -65 58 -56 103 3 21 31 122 61 224 93 320 95 323 163 317 25 -3 125 -33 221 -67z m249 -568 c-16 -53 -34 -102 -40 -110 -12 -14 -69 -19 -69 -5 1 12 49 172 55 183 8 12 43 27 66 28 14 1 12 -12 -12 -96z" fill="#ffffff"/>
<path d="M1135 998 c-71 -39 -92 -80 -202 -396 -97 -279 -113 -332 -113 -382 1 -74 56 -149 139 -189 32 -15 5 -16 -465 -21 -275 -3 880 -5 2566 -5 1855 0 2201 1 878 2 -1204 2 -2188 5 -2188 7 0 2 32 96 72 208 87 248 108 321 108 373 0 60 -37 124 -92 161 -45 30 -425 197 -537 235 -60 21 -135 24 -166 7z m116 -99 c54 -19 459 -189 510 -215 78 -39 84 -93 25 -249 l-23 -60 -86 -30 c-48 -17 -96 -40 -107 -51 -12 -11 -36 -63 -55 -115 -19 -52 -42 -111 -52 -132 l-16 -37 -89 0 c-86 0 -93 2 -235 62 -80 34 -158 72 -172 84 -44 37 -35 85 74 394 107 304 115 322 147 344 27 19 35 19 79 5z m450 -706 c-10 -27 -28 -78 -40 -115 -22 -66 -23 -68 -57 -68 -19 0 -34 4 -34 9 0 5 15 51 34 102 34 94 54 118 98 119 17 0 17 -3 -1 -47z" fill="#ffffff"/>
<path d="M4217 452 c-19 -22 -77 -186 -77 -218 0 -14 5 -34 10 -45 13 -23 220 -129 252 -129 43 0 55 18 99 148 48 142 41 161 -79 221 -77 39 -181 50 -205 23z m203 -62 c63 -32 80 -45 80 -62 0 -32 -72 -229 -85 -234 -16 -6 -216 88 -234 110 -22 27 2 94 37 102 29 7 62 31 62 46 0 24 31 78 45 78 8 0 51 -18 95 -40z" fill="#ffffff"/>
</g>
</svg>
